#!OML:ASF F:\VICON\USERDATA\INSTALL\rory3\rory3.ASF
:FULLY-SPECIFIED
:DEGREES
4364
root 1.60094 17.5478 -8.36861 549.232 71.1629 -1249.59
lowerback 9.66829 2.06946 2.75105
upperback 0.0566091 3.15484 1.09546
thorax -5.27787 1.51195 -0.845268
lowerneck -18.5191 -6.54723 -11.5867
upperneck 35.4827 -7.15791 7.51933
head 16.7095 -3.03571 4.07682
rclavicle -3.78685e-014 1.34677e-014
rhumerus -29.7901 -8.0094 -84.2687
rradius 34.3924
rwrist 2.12923
rhand -17.0005 9.76592
rfingers 7.12502
rthumb 9.23486 -20.0118
lclavicle -3.78685e-014 1.34677e-014
lhumerus -39.3895 6.30418 82.9173
lradius 29.8847
lwrist -6.85164
lhand -18.8402 25.8614
lfingers 7.12502
lthumb 7.45944 55.7099
rfemur 11.9362 3.86559 31.9222
rtibia 14.9818
rfoot -16.0703 -2.63981
rtoes 3.35581
lfemur -25.711 -4.46593 -15.0334
ltibia 14.5874
lfoot -5.22814 -1.28652
ltoes -5.38116
4365
root 1.71905 17.5354 -8.42711 549.659 71.5154 -1249.09
lowerback 9.67359 2.15497 2.88209
upperback 0.0900789 3.28004 1.04786
thorax -5.2317 1.57082 -0.984341
lowerneck -18.4312 -6.55406 -11.1449
upperneck 35.2227 -7.19594 7.0934
head 16.5068 -3.05838 3.78294
rclavicle -3.06998e-014 4.22417e-015
rhumerus -29.9358 -8.35291 -84.3293
rradius 34.2669
rwrist 2.15025
rhand -17.244 9.57299
rfingers 7.12502
rthumb 8.9999 -20.215
lclavicle -3.06998e-014 4.22417e-015
lhumerus -39.3397 6.31442 82.7351
lradius 29.9404
lwrist -6.68089
lhand -18.954 26.2331
lfingers 7.12502
lthumb 7.34959 56.0854
rfemur 12.661 4.07444 31.9919
rtibia 14.7056
rfoot -15.9003 -2.67044
rtoes 1.94296
lfemur -25.6132 -4.42999 -15.0674
ltibia 15.2257
lfoot -5.3727 -0.898499
ltoes -7.2716
4366
root 1.83937 17.5219 -8.48973 549.518 71.9456 -1249.14
lowerback 9.74919 2.23905 2.797
upperback 0.0972506 3.3797 0.970718
thorax -5.26319 1.62012 -1.0339
lowerneck -18.3083 -6.52915 -10.8971
upperneck 35.0247 -7.18558 6.86396
head 16.3457 -3.05918 3.62925
rclavicle -5.59237e-015 9.0447e-015
rhumerus -30.3335 -8.18109 -84.4306
rradius 34.4268
rwrist 1.83614
rhand -17.2498 9.24421
rfingers 7.12502
rthumb 8.99432 -20.5441
lclavicle -5.59237e-015 9.0447e-015
lhumerus -39.3821 6.34157 82.6138
lradius 29.9437
lwrist -6.55462
lhand -18.9953 26.4829
lfingers 7.12502
lthumb 7.30964 56.3366
rfemur 13.3333 4.23512 31.8071
rtibia 14.5941
rfoot -15.6667 -2.55774
rtoes 1.15723
lfemur -25.3815 -4.22679 -15.4261
ltibia 15.7837
lfoot -5.4141 -0.675982
ltoes -8.54274
4367
root 1.96351 17.5118 -8.55013 549.578 72.4555 -1249.11
lowerback 9.64555 2.37284 2.62308
upperback 0.0982682 3.53003 0.920835
thorax -5.20569 1.69847 -1.004
lowerneck -18.4043 -6.5519 -11.114
upperneck 35.1152 -7.26642 7.21942
head 16.4587 -3.06979 3.81456
rclavicle 1.13218e-014 1.37472e-014
rhumerus -30.5657 -8.31718 -84.467
rradius 34.3032
rwrist 1.87134
rhand -17.1771 9.26938
rfingers 7.12502
rthumb 9.06447 -20.5159
lclavicle 1.13218e-014 1.37472e-014
lhumerus -39.2765 6.55048 82.4257
lradius 29.7461
lwrist -6.76938
lhand -19.0204 26.5361
lfingers 7.12502
lthumb 7.28544 56.3907
rfemur 13.7373 4.31892 31.5629
rtibia 14.6626
rfoot -15.3969 -2.19366
rtoes 0.235995
lfemur -25.2071 -4.1483 -15.6452
ltibia 16.2578
lfoot -5.30224 -0.59068
ltoes -7.4534
4368
root 2.09028 17.5089 -8.61013 549.691 73.0447 -1249.05
lowerback 9.48586 2.53504 2.49035
upperback 0.0959314 3.71989 0.849338
thorax -5.11558 1.79543 -1.02148
lowerneck -18.3861 -6.55285 -11.3384
upperneck 35.1412 -7.31022 7.54649
head 16.5057 -3.07221 3.99535
rclavicle -2.58688e-014 -8.15638e-015
rhumerus -30.755 -8.33233 -84.5661
rradius 34.0631
rwrist 1.77535
rhand -17.265 9.23834
rfingers 7.12502
rthumb 8.97959 -20.5506
lclavicle -2.58688e-014 -8.15638e-015
lhumerus -39.2086 6.88199 82.1478
lradius 29.5695
lwrist -7.0359
lhand -19.1912 26.5343
lfingers 7.12502
lthumb 7.12055 56.3945
rfemur 14.1168 4.46025 31.3135
rtibia 14.7494
rfoot -15.1114 -1.6666
rtoes -1.34435
lfemur -24.9841 -4.2848 -15.7189
ltibia 16.7553
lfoot -5.00196 -0.619299
ltoes -4.23423
4369
root 2.21833 17.5146 -8.67409 550.014 73.5577 -1248.71
lowerback 9.3545 2.64253 2.51842
upperback 0.0993805 3.85705 0.787567
thorax -5.02759 1.86288 -1.11198
lowerneck -18.2183 -6.49073 -11.0794
upperneck 34.9581 -7.23074 7.27195
head 16.3284 -3.04892 3.83358
rclavicle -5.81228e-014 -7.8023e-015
rhumerus -30.9924 -8.35844 -84.6128
rradius 33.8202
rwrist 1.70243
rhand -17.3124 9.19343
rfingers 7.12502
rthumb 8.93391 -20.5974
lclavicle -5.81228e-014 -7.8023e-015
lhumerus -39.2015 7.14265 81.8873
lradius 29.4364
lwrist -7.07833
lhand -19.6164 26.5528
lfingers 7.12502
lthumb 6.71015 56.4265
rfemur 14.578 4.65669 31.1833
rtibia 14.838
rfoot -14.7436 -1.26759
rtoes -2.84075
lfemur -24.7277 -4.54506 -15.6673
ltibia 17.2757
lfoot -4.22707 -1.00734
ltoes -2.93981
4370
root 2.351 17.5292 -8.73622 550.614 74.054 -1248.13
lowerback 9.21194 2.72631 2.49337
upperback 0.0617939 3.9621 0.808308
thorax -4.98653 1.91574 -1.08336
lowerneck -18.1185 -6.41012 -10.7643
upperneck 34.8777 -7.10098 6.90909
head 16.2073 -3.00704 3.63853
rclavicle 6.76536e-014 9.19379e-016
rhumerus -31.2223 -8.84214 -84.4519
rradius 33.4175
rwrist 2.11413
rhand -17.0658 9.3588
rfingers 7.12502
rthumb 9.17183 -20.4217
lclavicle 6.76536e-014 9.19379e-016
lhumerus -39.3132 7.43673 81.6832
lradius 29.3754
lwrist -6.96715
lhand -19.3747 26.3068
lfingers 7.12502
lthumb 6.94346 56.1729
rfemur 14.9312 4.94851 31.1668
rtibia 15.1101
rfoot -14.3381 -1.12407
rtoes -4.75062
lfemur -24.5083 -4.95353 -15.4654
ltibia 17.6859
lfoot -2.88826 -1.66156
ltoes -5.04919
4371
root 2.48599 17.548 -8.79457 550.316 74.4876 -1248.51
lowerback 9.05285 2.79128 2.20557
upperback 0.00857614 4.00848 0.745179
thorax -4.96618 1.94393 -0.987289
lowerneck -18.2083 -6.38427 -10.7299
upperneck 35.0634 -7.04753 6.86926
head 16.3123 -2.98191 3.63328
rclavicle -3.96047e-014 1.21259e-014
rhumerus -31.3837 -9.49766 -84.3531
rradius 32.9509
rwrist 2.6286
rhand -16.9902 9.29307
rfingers 7.12502
rthumb 9.24483 -20.4843
lclavicle -3.96047e-014 1.21259e-014
lhumerus -39.4319 7.80495 81.432
lradius 29.4013
lwrist -6.91116
lhand -18.89 26.2668
lfingers 7.12502
lthumb 7.41136 56.117
rfemur 15.0791 5.17446 30.8943
rtibia 15.6206
rfoot -13.8539 -1.04006
rtoes -6.38006
lfemur -24.3505 -5.16529 -15.6224
ltibia 17.9858
lfoot -1.35222 -2.51771
ltoes -7.64803
4372
root 2.62283 17.5681 -8.8586 548.702 74.8866 -1250.15
lowerback 8.96396 2.82661 1.69766
upperback -0.0129598 3.98766 0.557221
thorax -4.95993 1.94255 -0.89235
lowerneck -18.2059 -6.30959 -10.7777
upperneck 35.2226 -6.94186 6.9538
head 16.3864 -2.92945 3.70947
rclavicle 6.36825e-014 4.96962e-017
rhumerus -31.6503 -9.76681 -84.3399
rradius 32.5614
rwrist 2.88834
rhand -16.7195 9.70177
rfingers 7.12502
rthumb 9.506 -20.0638
lclavicle 6.36825e-014 4.96962e-017
lhumerus -39.6127 8.01891 81.2261
lradius 29.5249
lwrist -6.6024
lhand -18.975 26.5084
lfingers 7.12502
lthumb 7.3293 56.3614
rfemur 15.1477 5.3248 30.2472
rtibia 16.5229
rfoot -13.5234 -0.797109
rtoes -7.24914
lfemur -23.9438 -5.41864 -16.1858
ltibia 18.0943
lfoot 0.0711204 -3.10802
ltoes -8.23836
4373
root 2.76114 17.5853 -8.92484 547.371 75.1685 -1251.42
lowerback 8.94266 2.8325 1.3171
upperback -0.0279699 3.94582 0.399411
thorax -4.97879 1.92826 -0.837947
lowerneck -18.0701 -6.21249 -10.718
upperneck 35.2433 -6.86325 7.05621
head 16.3548 -2.87398 3.76449
rclavicle 5.27649e-014 -1.39149e-015
rhumerus -31.9634 -10.1604 -84.2719
rradius 32.1191
rwrist 3.31113
rhand -16.3815 10.2052
rfingers 7.12502
rthumb 9.83208 -19.5452
lclavicle 5.27649e-014 -1.39149e-015
lhumerus -39.782 7.95761 81.1394
lradius 29.5849
lwrist -6.0846
lhand -19.3482 26.689
lfingers 7.12502
lthumb 6.969 56.5543
rfemur 15.0895 5.47291 29.7061
rtibia 17.8592
rfoot -13.3677 -0.36128
rtoes -5.62683
lfemur -23.3336 -5.63785 -16.6714
ltibia 17.9629
lfoot 1.42695 -3.77272
ltoes -6.32709
4374
root 2.89519 17.5977 -8.9796 545.979 75.2716 -1252.77
lowerback 8.94321 2.829 0.838019
upperback -0.0403198 3.88513 0.296874
thorax -5.0177 1.90793 -0.670121
lowerneck -18.0205 -6.19034 -10.5657
upperneck 35.3148 -6.82875 6.9041
head 16.3581 -2.85913 3.68049
rclavicle -4.89197e-014 -7.95139e-016
rhumerus -32.23 -10.634 -84.1751
rradius 31.7294
rwrist 3.4682
rhand -16.5092 9.81234
rfingers 7.12502
rthumb 9.70891 -19.9439
lclavicle -4.89197e-014 -7.95139e-016
lhumerus -39.8017 8.10605 80.9876
lradius 29.4876
lwrist -6.02887
lhand -19.4131 26.7159
lfingers 7.12502
lthumb 6.90641 56.5832
rfemur 14.8861 5.74049 29.3021
rtibia 19.4125
rfoot -12.9434 -0.113836
rtoes -1.75192
lfemur -22.758 -5.27558 -17.3161
ltibia 17.7635
lfoot 2.68074 -5.16379
ltoes -4.37932
